<svg xmlns="http://www.w3.org/2000/svg" width="106" height="22" viewBox="0 0 106 22" fill="none">
  <g clip-path="url(#clip0_1_2226)">
    <path d="M104.364 4.5459C105.245 4.5459 105.95 5.26976 105.95 6.17365C105.95 7.06029 105.236 7.78092 104.359 7.78038C103.48 7.77984 102.776 7.05382 102.777 6.15101C102.778 5.26761 103.492 4.5459 104.364 4.5459ZM105.623 6.16664C105.625 5.4611 105.062 4.88331 104.368 4.88007C103.675 4.87684 103.109 5.45194 103.106 6.16179C103.102 6.86679 103.668 7.44351 104.365 7.44674C105.053 7.44998 105.621 6.87218 105.623 6.16664" fill="#A8DC01"/>
    <path d="M104.361 7.83152H104.359C103.459 7.83098 102.726 7.07693 102.728 6.15095C102.729 5.23736 103.463 4.49463 104.364 4.49463C104.804 4.49463 105.216 4.66872 105.524 4.98511C105.831 5.30096 106.001 5.72299 106.001 6.17358C106.001 6.61609 105.829 7.03273 105.519 7.34643C105.209 7.65904 104.798 7.83152 104.361 7.83152ZM104.364 4.59704C103.517 4.59704 102.829 5.29449 102.827 6.15095C102.827 7.02034 103.514 7.72857 104.359 7.72911H104.36C104.77 7.72911 105.157 7.56741 105.448 7.27366C105.739 6.97937 105.899 6.58861 105.9 6.17358C105.9 5.74994 105.741 5.35324 105.452 5.0568C105.163 4.76035 104.777 4.59704 104.364 4.59704ZM104.37 7.49734H104.364C104.014 7.49573 103.684 7.35613 103.437 7.10334C103.189 6.85055 103.053 6.51584 103.055 6.16119C103.056 5.80438 103.194 5.46912 103.442 5.21688C103.689 4.96625 104.015 4.82826 104.362 4.82826H104.368C105.09 4.8315 105.674 5.43139 105.672 6.16604C105.671 6.52231 105.533 6.85756 105.283 7.11035C105.037 7.3599 104.713 7.4968 104.37 7.4968M104.362 4.93121C104.042 4.93121 103.741 5.05841 103.513 5.28964C103.284 5.52248 103.157 5.8324 103.155 6.16226C103.154 6.48943 103.279 6.79773 103.507 7.03112C103.736 7.2645 104.04 7.39332 104.364 7.39494C104.676 7.39494 104.983 7.26935 105.212 7.03812C105.443 6.8042 105.571 6.49482 105.572 6.16604C105.574 5.48799 105.034 4.93391 104.367 4.93067H104.362L104.362 4.93121Z" fill="#A8DC01"/>
    <path d="M104.032 6.31067V6.95854H103.75V5.3669C103.763 5.36636 103.776 5.36475 103.788 5.36475C104.006 5.36475 104.224 5.36475 104.441 5.36475C104.536 5.36475 104.629 5.37445 104.716 5.41164C104.888 5.4844 104.97 5.62292 104.979 5.80726C104.989 6.01962 104.903 6.15814 104.713 6.24923C104.708 6.25139 104.705 6.25408 104.698 6.25785C104.788 6.49016 104.878 6.72192 104.971 6.96124H104.919C104.849 6.96124 104.779 6.96016 104.708 6.96177C104.682 6.96231 104.669 6.95531 104.659 6.92782C104.587 6.72947 104.513 6.5322 104.439 6.33493C104.434 6.32038 104.431 6.30421 104.409 6.30475C104.287 6.30582 104.164 6.30582 104.042 6.30636C104.04 6.30636 104.038 6.30798 104.032 6.31067ZM104.033 6.0719C104.041 6.07298 104.047 6.07406 104.052 6.07406C104.17 6.07406 104.288 6.07621 104.405 6.07298C104.45 6.0719 104.498 6.06382 104.54 6.04872C104.625 6.01908 104.673 5.9544 104.682 5.86277C104.693 5.76252 104.66 5.68221 104.571 5.63101C104.519 5.60082 104.462 5.59382 104.404 5.59328C104.291 5.59274 104.178 5.59328 104.065 5.59328C104.055 5.59328 104.045 5.59436 104.033 5.59543V6.0719H104.033Z" fill="#A8DC01"/>
    <path d="M104.707 7.01345C104.659 7.01345 104.629 6.99189 104.612 6.94554C104.556 6.793 104.5 6.64047 104.443 6.48848L104.394 6.35588C104.317 6.35696 104.241 6.35696 104.164 6.35696H104.081V7.00968H103.7V5.31887L103.747 5.31563C103.767 5.31455 103.777 5.31348 103.787 5.31348H104.441C104.562 5.31348 104.653 5.32965 104.735 5.36468C104.917 5.44176 105.018 5.59429 105.028 5.80504C105.039 6.02494 104.951 6.18179 104.761 6.28204L105.045 7.01291H104.862C104.811 7.01237 104.761 7.01237 104.71 7.01345H104.707ZM104.776 6.90997C104.805 6.90997 104.833 6.90997 104.862 6.90997H104.897L104.635 6.23677L104.671 6.21413C104.682 6.20712 104.686 6.20443 104.69 6.20281C104.864 6.11981 104.937 5.99853 104.928 5.80881C104.919 5.63525 104.844 5.52099 104.696 5.45793C104.627 5.42828 104.548 5.41535 104.441 5.41481H103.801V6.90619H103.981V6.27504L104.013 6.2621L104.032 6.30899L104.016 6.25994L104.042 6.25348H104.164C104.246 6.25348 104.327 6.25348 104.408 6.2524H104.41C104.446 6.2524 104.472 6.27234 104.485 6.31169L104.537 6.45075C104.593 6.60328 104.65 6.75581 104.705 6.90889C104.729 6.90889 104.752 6.90889 104.776 6.90889M104.238 6.12573H104.052C104.045 6.12573 104.039 6.12466 104.031 6.12304L103.988 6.11603L103.983 6.07184V5.5474L104.03 5.54416C104.049 5.54309 104.057 5.54201 104.066 5.54201H104.15C104.235 5.54201 104.32 5.54201 104.405 5.54201C104.454 5.54201 104.528 5.54632 104.596 5.58621C104.698 5.64496 104.745 5.74197 104.733 5.86702C104.721 5.97967 104.659 6.06106 104.557 6.09663C104.51 6.1128 104.458 6.12196 104.407 6.12358C104.35 6.1252 104.294 6.12573 104.238 6.12573M104.083 6.02279H104.145C104.231 6.02387 104.317 6.02387 104.403 6.02171C104.445 6.02063 104.487 6.01309 104.524 6.00069C104.589 5.97805 104.624 5.93116 104.632 5.85732C104.641 5.7727 104.614 5.71502 104.547 5.67568C104.51 5.65466 104.466 5.64496 104.404 5.64496C104.319 5.64496 104.235 5.64496 104.15 5.64496H104.083V6.02333V6.02279Z" fill="#A8DC01"/>
    <path d="M30.0453 2.21436H27.2603V16.4022H30.0453V2.21436Z" fill="black"/>
    <path d="M33.5765 16.4022H30.9272V5.80566H31.5675L32.4409 6.83459C32.8675 6.43897 33.3512 6.1339 33.8916 5.91992C34.4319 5.70594 34.9965 5.59814 35.5849 5.59814C36.2188 5.59814 36.8173 5.72211 37.3803 5.96951C37.9428 6.21691 38.4345 6.55701 38.8553 6.98874C39.2762 7.42047 39.6077 7.92497 39.8503 8.50276C40.093 9.08002 40.2146 9.69501 40.2146 10.3477V16.4027H37.5654V10.3477C37.5654 10.0707 37.5136 9.8082 37.4099 9.5608C37.3063 9.3134 37.1636 9.09781 36.9828 8.91294C36.802 8.7286 36.591 8.58361 36.352 8.47797C36.1131 8.37287 35.8572 8.31951 35.5855 8.31951C35.3137 8.31951 35.0451 8.37287 34.7993 8.47797C34.5529 8.58361 34.3399 8.7286 34.1585 8.91294C33.9777 9.09835 33.835 9.31394 33.7319 9.5608C33.6283 9.8082 33.5765 10.0707 33.5765 10.3477V16.4027V16.4022Z" fill="black"/>
    <path d="M43.6531 16.4023H40.9849V1.59082H43.6531V10.9304L47.6034 5.82567H50.6502L47.2053 10.2378L50.6502 16.4023H47.6034L45.4972 12.5533L43.6531 15.0467V16.4023Z" fill="black"/>
    <path d="M56.6303 16.4022H50.5742V13.711H56.6303C56.8111 13.711 56.9665 13.6458 57.096 13.5137C57.225 13.3817 57.2901 13.2232 57.2901 13.0389C57.2901 12.8546 57.2256 12.7225 57.096 12.6632C56.9665 12.6034 56.8111 12.5737 56.6303 12.5737H53.8742C53.4148 12.5737 52.9845 12.4848 52.5837 12.3069C52.1825 12.1285 51.833 11.8865 51.5354 11.5793C51.2377 11.2726 51.003 10.9153 50.8317 10.5062C50.6604 10.0971 50.5742 9.65888 50.5742 9.1905C50.5742 8.72212 50.6599 8.28284 50.8317 7.87428C51.003 7.46519 51.2372 7.10946 51.5354 6.80601C51.833 6.50309 52.1825 6.26378 52.5837 6.08861C52.9845 5.91398 53.4148 5.82666 53.8742 5.82666H59.2409V8.51784H53.8742C53.6934 8.51784 53.538 8.58413 53.4085 8.71565C53.2789 8.8477 53.2145 9.00616 53.2145 9.1905C53.2145 9.37483 53.2789 9.54462 53.4085 9.68044C53.538 9.81519 53.6934 9.8831 53.8742 9.8831H56.6303C57.0828 9.8831 57.51 9.96072 57.9113 10.1154C58.3125 10.2701 58.662 10.4857 58.9596 10.7633C59.2567 11.0403 59.4931 11.3729 59.6681 11.7626C59.8431 12.1517 59.9303 12.577 59.9303 13.0394C59.9303 13.5019 59.8431 13.9444 59.6681 14.3503C59.4931 14.7556 59.2573 15.1113 58.9596 15.4185C58.662 15.7252 58.3125 15.9661 57.9113 16.1408C57.51 16.3154 57.0828 16.4027 56.6303 16.4027" fill="black"/>
    <path d="M63.2112 16.4023H60.562V1.59082H63.2112V6.27087C63.5279 6.02725 63.8546 5.85369 64.1914 5.75129C64.5276 5.64888 64.8708 5.59767 65.2202 5.59767C65.8605 5.59767 66.4626 5.72164 67.0251 5.96904C67.5882 6.21644 68.0783 6.55654 68.4954 6.98827C68.9125 7.42 69.243 7.9245 69.4851 8.50229C69.7278 9.07955 69.8493 9.69454 69.8493 10.3473V16.4023H67.1806V10.3473H67.2001C67.2001 10.0702 67.1483 9.80773 67.0447 9.56033C66.9411 9.31293 66.7983 9.09734 66.6175 8.91247C66.4367 8.72813 66.2258 8.58314 65.9868 8.4775C65.7478 8.3724 65.492 8.31904 65.2202 8.31904C64.9485 8.31904 64.6799 8.3724 64.4341 8.4775C64.1877 8.58314 63.9746 8.72813 63.7933 8.91247C63.6125 9.09788 63.4698 9.31347 63.3667 9.56033C63.263 9.80773 63.2112 10.0702 63.2112 10.3473V16.4023Z" fill="black"/>
    <path d="M81.0208 16.4023H80.38L79.3512 14.9476C79.099 15.1788 78.832 15.3949 78.5508 15.5954C78.2695 15.797 77.9735 15.9711 77.6626 16.1193C77.3523 16.2681 77.0335 16.3856 76.7067 16.4708C76.38 16.5565 76.048 16.5996 75.7123 16.5996C74.9806 16.5996 74.2933 16.4745 73.6499 16.2239C73.006 15.9733 72.4429 15.6089 71.9613 15.1303C71.4791 14.6522 71.099 14.0663 70.8209 13.3743C70.5423 12.6817 70.4038 11.8937 70.4038 11.0097C70.4038 10.1851 70.5423 9.42832 70.8209 8.73895C71.099 8.04958 71.4791 7.45777 71.9613 6.96297C72.4429 6.46872 73.006 6.08442 73.6499 5.81007C74.2933 5.53681 74.9806 5.3999 75.7123 5.3999C76.0485 5.3999 76.3816 5.44248 76.7115 5.52872C77.0414 5.61442 77.3618 5.733 77.6721 5.88446C77.9825 6.03645 78.2785 6.21432 78.5598 6.41859C78.841 6.62341 79.1048 6.8444 79.3507 7.08155L80.3795 5.82517H81.0203V16.4018L81.0208 16.4023ZM78.3515 11.0103C78.3515 10.641 78.2817 10.2826 78.1426 9.93658C78.0036 9.59055 77.8143 9.28387 77.5748 9.01707C77.3353 8.74973 77.0557 8.53521 76.7353 8.37351C76.4149 8.21182 76.0739 8.13097 75.7118 8.13097C75.3496 8.13097 75.0081 8.19349 74.6877 8.31907C74.3673 8.44412 74.0892 8.62899 73.8529 8.8737C73.6166 9.11732 73.4305 9.41915 73.2946 9.77866C73.1588 10.1382 73.0906 10.5494 73.0906 11.0108C73.0906 11.4722 73.1582 11.8834 73.2946 12.2424C73.4305 12.6019 73.6166 12.9037 73.8529 13.1479C74.0887 13.3915 74.3668 13.5769 74.6877 13.7025C75.0081 13.8276 75.3491 13.8906 75.7118 13.8906C76.0744 13.8906 76.4154 13.8098 76.7353 13.6481C77.0557 13.4864 77.3353 13.2724 77.5748 13.0045C77.8138 12.7377 78.0036 12.4305 78.1426 12.0845C78.2817 11.7384 78.3515 11.3805 78.3515 11.0113" fill="black"/>
    <path d="M84.3968 20.4389H81.728V5.80584H82.3683L83.4262 7.08163C83.6651 6.85148 83.9273 6.63373 84.2123 6.42891C84.4973 6.22463 84.7933 6.04838 85.1005 5.89962C85.4076 5.7514 85.7264 5.63444 86.0563 5.54874C86.3862 5.46304 86.7193 5.41992 87.0561 5.41992C87.7867 5.41992 88.4745 5.55305 89.1179 5.82093C89.7619 6.08773 90.3244 6.46556 90.8065 6.95335C91.2887 7.44167 91.6688 8.03079 91.9469 8.71962C92.225 9.40899 92.3646 10.1727 92.3646 11.0103C92.3646 11.8479 92.225 12.6645 91.9469 13.3603C91.6688 14.0562 91.2887 14.6464 90.8065 15.1314C90.3244 15.616 89.7619 15.9868 89.1179 16.2445C88.4745 16.5016 87.7867 16.6304 87.0561 16.6304C86.8229 16.6304 86.5914 16.604 86.3619 16.5511C86.1325 16.4983 85.9062 16.4277 85.6826 16.3388C85.4595 16.2493 85.2395 16.1491 85.0228 16.037C84.806 15.9243 84.5972 15.8095 84.3968 15.6909V20.44V20.4389ZM89.7053 11.0103C89.7053 10.5619 89.636 10.1593 89.497 9.80299C89.3574 9.44672 89.1687 9.14488 88.9292 8.89749C88.6897 8.65009 88.4079 8.4609 88.0849 8.32885C87.7619 8.1968 87.4182 8.13104 87.0566 8.13104C86.695 8.13104 86.3529 8.1968 86.0326 8.32885C85.7122 8.4609 85.432 8.65009 85.193 8.89749C84.9535 9.14488 84.7642 9.44672 84.6252 9.80299C84.4856 10.1593 84.4164 10.5613 84.4164 11.0103C84.4164 11.4593 84.4856 11.8317 84.6252 12.188C84.7637 12.5438 84.9535 12.8477 85.193 13.0984C85.432 13.349 85.7122 13.5436 86.0326 13.6816C86.3529 13.8201 86.6939 13.8896 87.0566 13.8896C87.4193 13.8896 87.7619 13.8201 88.0849 13.6816C88.4084 13.5436 88.6897 13.349 88.9292 13.0984C89.1682 12.8477 89.3574 12.5438 89.497 12.188C89.636 11.8317 89.7053 11.4388 89.7053 11.0103Z" fill="black"/>
    <path d="M97.3758 13.8096C97.4794 13.8424 97.5825 13.864 97.6861 13.8742C97.7897 13.8834 97.8928 13.8893 97.9964 13.8893C98.255 13.8893 98.5045 13.8532 98.7435 13.7805C98.9824 13.7077 99.2076 13.6042 99.4181 13.4684C99.6279 13.3336 99.8156 13.1687 99.9806 12.9741C100.146 12.7796 100.28 12.564 100.383 12.3263L102.325 14.3151C102.078 14.6714 101.796 14.9916 101.476 15.2751C101.155 15.5586 100.809 15.799 100.437 15.9973C100.065 16.1951 99.6739 16.345 99.2632 16.4474C98.8524 16.5498 98.43 16.601 97.997 16.601C97.2653 16.601 96.578 16.4625 95.9346 16.1854C95.2906 15.9084 94.7276 15.5225 94.246 15.0282C93.7638 14.5329 93.3837 13.9443 93.1056 13.262C92.827 12.5796 92.6885 11.8288 92.6885 11.0111C92.6885 10.1935 92.827 9.40817 93.1056 8.71611C93.3837 8.0235 93.7638 7.43277 94.246 6.94499C94.7276 6.45666 95.2906 6.07721 95.9346 5.80718C96.578 5.5366 97.2653 5.40186 97.997 5.40186C98.43 5.40186 98.854 5.45468 99.2679 5.56032C99.6819 5.66542 100.075 5.81688 100.447 6.01523C100.819 6.21304 101.166 6.45558 101.49 6.74286C101.814 7.02961 102.098 7.35138 102.344 7.70766L97.3752 13.8117L97.3758 13.8096ZM98.7345 8.23964C98.6113 8.19329 98.4902 8.16364 98.3702 8.15017C98.2507 8.13723 98.126 8.13076 97.997 8.13076C97.6343 8.13076 97.2933 8.19868 96.9729 8.33342C96.6525 8.46871 96.3744 8.66167 96.1381 8.9123C95.9018 9.16347 95.7157 9.46476 95.5798 9.8178C95.444 10.1708 95.3758 10.5681 95.3758 11.01C95.3758 11.1092 95.3805 11.2208 95.3906 11.3464C95.4001 11.4714 95.4165 11.5992 95.4392 11.7274C95.4614 11.8563 95.4889 11.9792 95.5217 12.0977C95.5539 12.2168 95.5962 12.322 95.648 12.4141L98.7345 8.2391V8.23964Z" fill="black"/>
    <path d="M10.1279 1.89853L11.1985 0.807617L14.8274 4.53527L11.3175 6.78232L9.07428 5.34592L8.08935 6.53708L11.3175 8.60357L15.8118 5.72536L18.7243 9.24659L11.3175 13.9859L5.17843 10.0562L4.19455 11.2452L11.3175 15.805L19.7055 10.4329L22.6207 13.9574L11.3175 21.1922L0 13.9487L0.967486 12.7845L0.992334 12.8007L0.992863 12.8002L11.3175 19.4093L20.3896 13.6022L19.4042 12.411L11.3175 17.588L1.96299 11.6014L4.87708 8.0786L11.3175 12.2035L16.4927 8.89032L15.5099 7.70292L11.3175 10.3866L5.85831 6.89174L8.77293 3.36782L11.3175 4.99934L12.5969 4.18008L10.1279 1.89853Z" fill="#A8DC01"/>
  </g>
  <defs>
    <clipPath id="clip0_1_2226">
      <rect width="106" height="20.3846" fill="white" transform="translate(0 0.807617)"/>
    </clipPath>
  </defs>
</svg>