<svg xmlns="http://www.w3.org/2000/svg" width="186" height="32" viewBox="0 0 186 32" fill="none">
  <path d="M28.6906 23.7615V1.21497H32.9659V15.0421L39.9976 6.35656H45.3417L38.1074 15.0421L45.3417 23.7615H39.9976L32.9659 15.0421V23.7615H28.6906Z" fill="#013565"/>
  <path d="M59.9002 23.7616V20.9714H59.844C59.2814 21.894 58.5164 22.6703 57.5376 23.3116C56.5588 23.9529 55.3887 24.2679 54.0498 24.2679C51.4847 24.2679 49.302 23.3903 47.5132 21.6127C45.713 19.8463 44.8242 17.6524 44.8242 15.031C44.8242 12.4096 45.7243 10.2382 47.5132 8.47183C49.3133 6.70546 51.4847 5.81665 54.0498 5.81665C56.4238 5.81665 58.3476 6.82922 59.844 8.85435H59.9002V6.33419H64.1755V23.7504H59.9002V23.7616ZM59.9002 15.0423C59.9002 13.5797 59.3827 12.3196 58.3476 11.2733C57.3126 10.2269 56.0637 9.69816 54.5786 9.69816C53.0935 9.69816 51.8559 10.2269 50.8096 11.2733C49.7633 12.3308 49.2458 13.5797 49.2458 15.0423C49.2458 16.5049 49.7633 17.7987 50.8096 18.8563C51.8559 19.9138 53.1048 20.4314 54.5786 20.4314C56.0525 20.4314 57.3238 19.9026 58.3476 18.8563C59.3715 17.81 59.889 16.5386 59.889 15.0423H59.9002Z" fill="#013565"/>
  <path d="M67.517 4.30904C67.0219 3.814 66.7744 3.21772 66.7744 2.53142C66.7744 1.84512 67.0219 1.24883 67.517 0.7538C68.012 0.258767 68.6083 0 69.3058 0C70.0034 0 70.5997 0.247517 71.0947 0.7538C71.5897 1.24883 71.826 1.84512 71.826 2.53142C71.826 3.21772 71.5785 3.814 71.0947 4.30904C70.5997 4.80407 70.0146 5.06284 69.3058 5.06284C68.597 5.06284 68.012 4.81532 67.517 4.30904ZM67.1682 6.34542H71.4435V23.7616H67.1682V6.35668V6.34542Z" fill="#013565"/>
  <path d="M83.1329 5.83911C84.0554 5.83911 84.933 5.98537 85.7768 6.26664L84.4267 10.1369C83.9654 10.0019 83.5379 9.93438 83.1329 9.93438C81.9065 9.93438 80.8715 10.3732 80.0052 11.2507C79.1389 12.1283 78.7113 13.1971 78.7113 14.4347V23.7616H74.436V6.35665H78.7113V8.94432C79.9376 6.87418 81.4115 5.85036 83.1329 5.85036V5.83911Z" fill="#013565"/>
  <path d="M104.948 15.0422C104.948 17.6412 103.981 19.835 102.045 21.6127C100.11 23.3903 97.8264 24.2791 95.1824 24.2791C92.5385 24.2791 90.2771 23.3903 88.3307 21.6127C86.3843 19.835 85.4055 17.6412 85.4055 15.0422C85.4055 12.4433 86.3731 10.2832 88.3195 8.50554C90.2658 6.72792 92.5497 5.83911 95.1712 5.83911C97.7926 5.83911 100.088 6.72792 102.023 8.50554C103.969 10.2832 104.937 12.4658 104.937 15.0422H104.948ZM100.504 15.0422C100.504 13.5796 99.9865 12.3195 98.9514 11.2732C97.9164 10.2269 96.6675 9.69812 95.1824 9.69812C93.6973 9.69812 92.4597 10.2269 91.4134 11.2732C90.3671 12.3195 89.8496 13.5796 89.8496 15.0422C89.8496 16.5048 90.3671 17.7987 91.4134 18.8562C92.4597 19.9138 93.7086 20.4313 95.1824 20.4313C96.6563 20.4313 97.9276 19.9026 98.9514 18.8562C99.9753 17.8099 100.493 16.5386 100.493 15.0422H100.504Z" fill="#013565"/>
  <path d="M9.38439 9.32678H0.305054V12.6008H9.38439L2.67895 19.3062L4.9966 21.6239L13.3447 13.2758L21.4002 21.3426L23.7179 19.0249L17.2937 12.6008H26.3843V9.32678H17.2937H9.38439Z" fill="#FFC300"/>
  <path d="M15.1449 23.919H11.6346V18.9912L13.446 17.191L15.0436 18.7886L15.1449 23.919Z" fill="#FFC300"/>
  <path d="M11.6346 1.22632H15.1449V6.15415L13.3335 7.96552L11.7359 6.36791L11.6346 1.22632Z" fill="#FFC300"/>
  <path d="M107.772 18.0462C107.84 18.0237 107.885 18.0012 107.93 18.0012C109.077 17.9449 109.089 17.9337 109.482 19.0137C110.247 21.1064 111.845 22.2427 113.915 22.6365C116.908 23.2215 119.934 23.2103 122.904 22.5015C124.705 22.0739 126.122 21.1739 126.482 19.1487C126.775 17.4949 126.178 16.246 124.705 15.436C123.478 14.7722 122.128 14.5584 120.789 14.3109C118.472 13.8834 116.109 13.7484 113.814 13.1633C112.903 12.9383 112.025 12.6121 111.17 12.1845C107.918 10.5307 108.256 6.44664 110.056 4.55651C111.406 3.13892 113.105 2.45262 114.995 2.2051C117.842 1.82258 120.643 1.91259 123.321 3.10517C125.47 4.06148 126.606 5.77159 126.988 8.04425C127.022 8.23551 127.169 8.60678 126.763 8.55053C126.37 8.50553 125.841 8.8768 125.593 8.29176C125.425 7.88673 125.38 7.42545 125.211 7.00918C124.513 5.22031 123.039 4.38775 121.296 3.99397C118.854 3.44269 116.379 3.34143 113.938 3.98272C112.509 4.354 111.237 5.01779 110.529 6.40164C109.617 8.17925 110.169 9.96812 111.912 10.9244C113.296 11.6782 114.838 11.9595 116.379 12.1845C118.809 12.5333 121.251 12.7696 123.613 13.4671C124.84 13.8384 126.021 14.3222 126.887 15.3235C128.969 17.7311 127.99 21.8264 125.008 23.3115C123.186 24.2228 121.239 24.4816 119.248 24.5491C116.885 24.6391 114.523 24.6279 112.273 23.739C109.674 22.7152 108.267 20.7463 107.772 18.0462Z" fill="#FFC300"/>
  <path d="M183.073 11.712C182.961 11.7345 182.916 11.757 182.871 11.757C181.937 11.8583 181.194 11.7908 180.823 10.6544C180.542 9.76562 179.743 9.15808 178.854 8.83181C176.93 8.12301 174.984 8.07801 173.049 8.77556C172.745 8.88806 172.453 9.05682 172.183 9.24809C170.72 10.3057 170.731 12.117 172.183 13.1633C173.308 13.9622 174.635 14.2322 175.929 14.5922C177.718 15.0872 179.552 15.4473 181.228 16.2911C182.691 17.0336 183.625 18.1587 183.658 19.8238C183.692 21.4889 182.77 22.659 181.363 23.469C178.404 25.1792 173.341 24.8754 170.821 22.839C169.899 22.0964 169.291 21.1289 168.886 20.0151C168.762 19.6663 168.83 19.5313 169.201 19.565C169.37 19.5763 169.539 19.5875 169.696 19.565C170.304 19.4525 170.596 19.7 170.821 20.2851C171.294 21.5114 172.295 22.2652 173.521 22.6027C175.727 23.199 177.966 23.199 180.137 22.4002C181.622 21.8602 182.353 20.5438 181.993 19.2613C181.791 18.5525 181.296 18.0912 180.677 17.7537C179.417 17.0674 178.033 16.7861 176.66 16.4373C175.063 16.0323 173.454 15.6835 171.969 14.9185C170.518 14.1759 169.584 13.0846 169.539 11.397C169.494 9.67562 170.36 8.43803 171.823 7.70673C174.59 6.31164 177.414 6.33414 180.171 7.79674C181.712 8.61804 182.545 10.0244 183.073 11.712Z" fill="#FFC300"/>
  <path d="M153.889 9.5519C155.43 7.313 157.636 6.71671 160.099 6.69421C161.09 6.68296 162.091 6.73922 163.058 6.98673C165.702 7.67303 167.154 9.36064 167.559 12.1733C167.739 13.4334 167.784 14.716 167.784 15.9873C167.784 18.5638 167.761 21.1289 167.795 23.7053C167.806 24.4591 167.322 24.2341 166.951 24.2566C166.569 24.2679 166.175 24.4029 166.175 23.7166C166.197 20.4089 166.175 17.1124 166.13 13.8047C166.13 12.8821 165.916 11.9821 165.59 11.1158C165.05 9.70941 164.037 8.7981 162.608 8.42683C160.797 7.9543 158.952 7.9768 157.163 8.57309C154.879 9.32689 154.092 11.1945 153.968 13.3659C153.765 16.6849 153.923 20.0151 153.889 23.3453C153.889 24.1891 153.326 24.5604 152.505 24.2566C152.381 24.2116 152.314 24.1441 152.303 24.0091C152.303 23.8629 152.303 23.7278 152.303 23.5816C152.303 18.2937 152.325 13.0059 152.28 7.71803C152.28 6.97548 152.64 7.04299 153.135 7.00923C153.698 6.97548 153.957 7.11049 153.9 7.72928C153.844 8.33682 153.889 8.94436 153.889 9.56315V9.5519Z" fill="#FFC300"/>
  <path d="M131.286 15.661C131.286 18.3274 131.252 20.9939 131.309 23.6603C131.32 24.4366 130.881 24.2566 130.465 24.2791C130.015 24.3016 129.7 24.3353 129.7 23.6603C129.734 18.3049 129.734 12.9496 129.7 7.59423C129.7 6.86293 130.105 7.02044 130.499 7.00919C130.904 7.00919 131.309 6.87418 131.297 7.59423C131.252 10.2832 131.275 12.9721 131.275 15.661H131.286Z" fill="#FFC300"/>
  <path d="M130.521 2.29511C131.05 2.19385 131.309 2.32886 131.32 2.9589C131.32 3.6227 131.072 3.70145 130.499 3.7127C129.891 3.72396 129.7 3.5777 129.7 2.9364C129.7 2.26136 130.015 2.21635 130.521 2.28386V2.29511Z" fill="#FFC300"/>
  <path d="M150.604 7.65047C150.604 6.99793 150.368 6.93042 149.827 6.95292C149.344 6.97543 148.972 6.93042 149.029 7.62797C149.096 8.49428 149.04 9.37184 149.04 10.2494C148.984 10.2719 148.927 10.2831 148.86 10.2944C148.174 9.05681 147.229 8.1005 145.946 7.51546C143.966 6.6154 141.896 6.5479 139.781 6.81791C136.484 7.24544 134.076 9.30433 133.221 12.522C132.67 14.5697 132.715 16.6286 133.221 18.665C133.638 20.3413 134.436 21.7814 135.854 22.8277C138.442 24.7179 141.356 24.8866 144.371 24.2791C146.34 23.8853 147.859 22.7827 148.849 20.9826C148.916 21.0051 148.972 21.0276 149.04 21.0501C149.04 22.1302 149.051 23.199 149.04 24.2791C149.017 25.8767 148.32 27.1593 147.004 28.0481C144.585 29.6794 141.918 29.7469 139.195 29.0719C137.35 28.6106 136.124 27.3955 135.618 25.5954C135.37 24.7291 134.92 24.6616 134.211 24.7066C133.851 24.7291 133.75 24.8304 133.84 25.1791C134.301 27.058 135.201 28.6556 136.9 29.6682C139.454 31.1983 142.211 31.4008 145.023 30.6245C148.725 29.6119 150.604 27.1143 150.604 23.3115C150.604 18.1024 150.593 12.8821 150.626 7.67297L150.604 7.65047ZM148.781 18.1699C148.264 20.5551 146.846 22.0852 144.45 22.6927C142.649 23.1428 140.838 23.1428 139.06 22.7152C136.563 22.1077 135.089 20.4876 134.65 17.9449C134.38 16.3698 134.346 14.8059 134.65 13.2308C135.246 10.1031 137.272 8.68554 140.163 8.35927C140.681 8.30301 141.198 8.29176 141.761 8.26926C142.661 8.33677 143.595 8.35927 144.517 8.59553C146.711 9.16932 148.084 10.5419 148.657 12.7021C149.141 14.5022 149.175 16.3473 148.781 18.1699Z" fill="#FFC300"/>
  <path d="M182.95 6.88548H182.41V6.69421H183.715V6.88548H183.175V8.44933H182.95V6.88548Z" fill="white"/>
  <path d="M185.402 7.68432C185.391 7.4368 185.369 7.14428 185.38 6.91927C185.324 7.12178 185.245 7.3468 185.155 7.58306L184.84 8.43812H184.671L184.39 7.59431C184.311 7.3468 184.232 7.12178 184.187 6.90802C184.187 7.13303 184.165 7.42555 184.154 7.68432L184.109 8.43812H183.895L184.019 6.67175H184.311L184.615 7.52681C184.682 7.74057 184.75 7.93184 184.795 8.1231C184.84 7.94309 184.907 7.75182 184.975 7.52681L185.29 6.67175H185.583L185.695 8.43812H185.47L185.425 7.66182L185.402 7.68432Z" fill="white"/>
</svg>