<svg xmlns="http://www.w3.org/2000/svg" width="22" height="21" viewBox="0 0 22 21" fill="none">
  <path d="M10.9995 17.5927L5.66732 20.8031C5.43176 20.9529 5.1855 21.0171 4.92853 20.9957C4.67156 20.9743 4.44671 20.8887 4.25398 20.7389C4.06126 20.5891 3.91136 20.402 3.80429 20.1777C3.69721 19.9534 3.6758 19.7017 3.74004 19.4226L5.15338 13.3551L0.431551 9.27792C0.217409 9.0853 0.083784 8.86571 0.0306768 8.61915C-0.0224303 8.3726 -0.00658392 8.13204 0.0782163 7.89747C0.163016 7.6629 0.291502 7.47027 0.463672 7.3196C0.635842 7.16893 0.871398 7.07262 1.17034 7.03067L7.40187 6.48491L9.81096 0.770485C9.91804 0.513656 10.0842 0.321035 10.3095 0.192621C10.5348 0.0642069 10.7648 0 10.9995 0C11.2342 0 11.4641 0.0642069 11.6894 0.192621C11.9147 0.321035 12.0809 0.513656 12.1879 0.770485L14.597 6.48491L20.8286 7.03067C21.1284 7.07348 21.3639 7.16979 21.5352 7.3196C21.7065 7.46942 21.835 7.66204 21.9207 7.89747C22.0063 8.13289 22.0226 8.37388 21.9695 8.62044C21.9164 8.86699 21.7824 9.08615 21.5674 9.27792L16.8455 13.3551L18.2589 19.4226C18.3231 19.7009 18.3017 19.9526 18.1946 20.1777C18.0875 20.4029 17.9376 20.5899 17.7449 20.7389C17.5522 20.8878 17.3273 20.9734 17.0704 20.9957C16.8134 21.018 16.5671 20.9538 16.3316 20.8031L10.9995 17.5927Z" fill="#FFC300"/>
</svg>