<svg width="27" height="27" viewBox="0 0 27 27" fill="none" xmlns="http://www.w3.org/2000/svg">
<path d="M1.6875 13.5C1.6875 16.6329 2.93203 19.6374 5.1473 21.8527C7.36257 24.068 10.3671 25.3125 13.5 25.3125C16.6329 25.3125 19.6374 24.068 21.8527 21.8527C24.068 19.6374 25.3125 16.6329 25.3125 13.5C25.3125 10.3671 24.068 7.36257 21.8527 5.1473C19.6374 2.93203 16.6329 1.6875 13.5 1.6875C10.3671 1.6875 7.36257 2.93203 5.1473 5.1473C2.93203 7.36257 1.6875 10.3671 1.6875 13.5Z" stroke="#FFC300" stroke-width="1.5" stroke-linejoin="round"/>
<path d="M8.4375 13.5C8.4375 10.3671 8.97087 7.36257 9.92027 5.1473C10.8697 2.93203 12.1573 1.6875 13.5 1.6875C14.8427 1.6875 16.1303 2.93203 17.0797 5.1473C18.0291 7.36257 18.5625 10.3671 18.5625 13.5C18.5625 16.6329 18.0291 19.6374 17.0797 21.8527C16.1303 24.068 14.8427 25.3125 13.5 25.3125C12.1573 25.3125 10.8697 24.068 9.92027 21.8527C8.97087 19.6374 8.4375 16.6329 8.4375 13.5Z" stroke="#FFC300" stroke-width="1.5" stroke-linejoin="round"/>
<path d="M2.53125 17.4375H24.4688M2.53125 9.5625H24.4688" stroke="#FFC300" stroke-width="1.5" stroke-linecap="round"/>
</svg>
